<svg width="96" height="96" xmlns="http://www.w3.org/2000/svg" xmlns:xlink="http://www.w3.org/1999/xlink" xml:space="preserve" overflow="hidden"><g transform="translate(-1624 -467)"><path d="M1708 493.802 1707.12 493.382 1676.81 478.95 1637.15 487.604 1636 487.854 1636 535.442 1664.14 550.597 1665.01 551.062 1666.14 550.787 1708 540.684 1708 493.802ZM1676.57 481.05 1703.93 494.078C1703.94 494.085 1703.94 494.094 1703.93 494.097L1677.69 499.978 1677.69 499.185 1675.69 499.185 1675.69 500.426 1665.29 502.757 1639.88 489.073C1639.86 489.066 1639.87 489.058 1639.88 489.055ZM1638 534.248 1638 490.351C1638 490.345 1638 490.341 1638.01 490.341 1638.01 490.341 1638.01 490.341 1638.01 490.342L1664.14 504.412 1664.14 548.309C1664.14 548.314 1664.14 548.319 1664.13 548.319 1664.13 548.319 1664.13 548.318 1664.13 548.318ZM1706 539.11 1666.14 548.73 1666.14 529.51 1668.47 529.002 1668.05 527.048 1666.14 527.463 1666.14 504.615 1675.69 502.475 1675.69 503.185 1677.69 503.185 1677.69 502.027 1706 495.682Z" stroke="#595959" fill="#595959"/><path d="M1675.69 513.185 1677.69 513.185 1677.69 517.185 1675.69 517.185Z" stroke="#595959" fill="#595959"/><path d="M1675.69 492.185 1677.69 492.185 1677.69 496.185 1675.69 496.185Z" stroke="#595959" fill="#595959"/><path d="M1675.69 506.185 1677.69 506.185 1677.69 510.185 1675.69 510.185Z" stroke="#595959" fill="#595959"/><path d="M1675.69 485.185 1677.69 485.185 1677.69 489.185 1675.69 489.185Z" stroke="#595959" fill="#595959"/><path d="M1675.69 520.185 1677.69 520.185 1677.69 524.185 1675.69 524.185Z" stroke="#595959" fill="#595959"/><path d="M1677.53 527.662 1678.35 525.839 1682 527.488 1681.17 529.31Z" stroke="#595959" fill="#595959"/><path d="M1696.66 536.317 1697.48 534.494 1701.13 536.143 1700.3 537.966Z" stroke="#595959" fill="#595959"/><path d="M1643.62 532.377 1647.53 531.525 1647.96 533.479 1644.05 534.331Z" stroke="#595959" fill="#595959"/><path d="M1670.98 526.408 1674.89 525.556 1675.31 527.51 1671.4 528.362Z" stroke="#595959" fill="#595959"/><path d="M1690.28 533.431 1691.11 531.609 1694.75 533.258 1693.93 535.08Z" stroke="#595959" fill="#595959"/><path d="M1683.91 530.547 1684.73 528.725 1688.37 530.373 1687.55 532.195Z" stroke="#595959" fill="#595959"/><path d="M1650.46 530.885 1654.37 530.033 1654.79 531.987 1650.89 532.839Z" stroke="#595959" fill="#595959"/><path d="M1657.3 529.393 1661.21 528.541 1661.63 530.495 1657.72 531.347Z" stroke="#595959" fill="#595959"/></g></svg>