<svg width="2353" height="2071" xmlns="http://www.w3.org/2000/svg" xmlns:xlink="http://www.w3.org/1999/xlink" xml:space="preserve" overflow="hidden"><defs><clipPath id="clip0"><rect x="980" y="186" width="2353" height="2071"/></clipPath></defs><g clip-path="url(#clip0)" transform="translate(-980 -186)"><path d="M1214.5 1101.34C1214.5 978.268 1314.27 878.5 1437.34 878.5L2929.66 878.5C3052.73 878.5 3152.5 978.268 3152.5 1101.34L3152.5 1992.66C3152.5 2115.73 3052.73 2215.5 2929.66 2215.5L1437.34 2215.5C1314.27 2215.5 1214.5 2115.73 1214.5 1992.66Z" stroke="#000000" stroke-width="82.5" stroke-miterlimit="8" fill="#FFFFFF" fill-rule="evenodd"/><path d="M2201.85 186C2278.17 186 2343.66 232.371 2371.63 298.458L2379.03 322.274 2402.63 302.82C2432.04 282.967 2467.49 271.374 2505.65 271.374 2607.42 271.374 2689.91 353.812 2689.91 455.503 2689.91 493.637 2678.31 529.064 2658.45 558.452L2651.85 566.444 2656.95 569.029 2662.51 551.15C2682.24 504.516 2728.45 471.795 2782.31 471.795 2854.12 471.795 2912.34 529.966 2912.34 601.724L2903.74 644.265 2919.61 645.863C2992.31 660.729 3047 725.009 3047 802.052 3047 890.101 2975.57 961.479 2887.46 961.479L2872.85 960.008 2863.24 980.83C2773.59 1141.41 2504.72 1258 2186.98 1258 1869.23 1258 1600.37 1141.41 1510.71 980.83L1507.24 973.311 1474.4 970.003C1398.84 954.552 1342 887.748 1342 807.677 1342 727.606 1398.84 660.801 1474.4 645.351L1500.68 642.704 1499.5 640.54C1493.25 625.772 1489.8 609.535 1489.8 592.491 1489.8 524.315 1545.1 469.048 1613.33 469.048 1664.5 469.048 1708.4 500.136 1727.16 544.441L1732.38 561.246 1735.52 559.653 1725.99 542.1C1716.12 518.797 1710.67 493.177 1710.67 466.283 1710.67 358.71 1797.94 271.504 1905.59 271.504 1945.96 271.504 1983.46 283.767 2014.57 304.769L2026.94 314.964 2032.07 298.458C2060.04 232.371 2125.53 186 2201.85 186Z" fill="#FFFFFF" fill-rule="evenodd"/><path d="M2204.5 826.5 2204.5 1001.6" stroke="#000000" stroke-width="33.2292" stroke-miterlimit="8" fill="none" fill-rule="evenodd"/><path d="M2201 1065 1975.5 960.5" stroke="#000000" stroke-width="22.9167" stroke-miterlimit="8" fill="none" fill-rule="evenodd"/><path d="M2074 1045.5C2074 978.397 2130.41 924 2200 924 2269.59 924 2326 978.397 2326 1045.5 2326 1112.6 2269.59 1167 2200 1167 2130.41 1167 2074 1112.6 2074 1045.5Z" fill="#103A6C" fill-rule="evenodd"/><path d="M2240.95 931 2246.13 932.484C2292.9 950.249 2326 994.166 2326 1045.53 2326 1112.62 2269.54 1167 2199.9 1167 2154.19 1167 2114.16 1143.58 2092.05 1108.52L2090 1104.54 2093.78 1105.88C2105.63 1109.43 2118.22 1111.34 2131.28 1111.34 2200.93 1111.34 2257.38 1056.95 2257.38 989.868 2257.38 973.096 2253.86 957.119 2247.47 942.586Z" fill="#000924" fill-rule="evenodd"/><path d="M0 0 307.812 87.7762" stroke="#000000" stroke-width="37.8125" stroke-miterlimit="8" fill="none" fill-rule="evenodd" transform="matrix(-1 0 0 1 2205.81 363)"/><path d="M1594 582 1814 765.178" stroke="#000000" stroke-width="37.8125" stroke-miterlimit="8" fill="none" fill-rule="evenodd"/><path d="M1756 746C1756 701.817 1791.82 666 1836 666 1880.18 666 1916 701.817 1916 746 1916 790.183 1880.18 826 1836 826 1791.82 826 1756 790.183 1756 746Z" fill="#FCB300" fill-rule="evenodd"/><path d="M1861.94 671 1865.24 671.975C1894.96 683.643 1916 712.487 1916 746.221 1916 790.282 1880.12 826 1835.85 826 1806.8 826 1781.36 810.617 1767.3 787.589L1766 784.981 1768.4 785.856C1775.93 788.187 1783.94 789.443 1792.24 789.443 1836.5 789.443 1872.39 753.724 1872.39 709.663 1872.39 698.648 1870.15 688.154 1866.09 678.61Z" fill="#F50200" fill-rule="evenodd"/><path d="M1404 793.5C1404 735.786 1450.79 689 1508.5 689 1566.21 689 1613 735.786 1613 793.5 1613 851.214 1566.21 898 1508.5 898 1450.79 898 1404 851.214 1404 793.5Z" fill="#FF0656" fill-rule="evenodd"/><path d="M1542.36 695 1546.67 696.277C1585.51 711.558 1613 749.334 1613 793.515 1613 851.22 1566.11 898 1508.27 898 1470.31 898 1437.07 877.854 1418.7 847.694L1417 844.278 1420.14 845.424C1429.98 848.477 1440.44 850.122 1451.28 850.122 1509.12 850.122 1556.01 803.342 1556.01 745.637 1556.01 731.21 1553.08 717.467 1547.78 704.966Z" fill="#B7054A" fill-rule="evenodd"/><path d="M1516 800 1834.03 924.661" stroke="#000000" stroke-width="37.8125" stroke-miterlimit="8" fill="none" fill-rule="evenodd"/><path d="M1906 945C1906 896.399 1945.4 857 1994 857 2042.6 857 2082 896.399 2082 945 2082 993.601 2042.6 1033 1994 1033 1945.4 1033 1906 993.601 1906 945Z" fill="#FCB300" fill-rule="evenodd"/><path d="M2022.53 862 2026.16 863.076C2058.86 875.948 2082 907.769 2082 944.985 2082 993.594 2042.53 1033 1993.83 1033 1961.88 1033 1933.89 1016.03 1918.43 990.624L1917 987.747 1919.64 988.712C1927.93 991.284 1936.73 992.669 1945.86 992.669 1994.55 992.669 2034.03 953.264 2034.03 904.654 2034.03 892.502 2031.56 880.925 2027.1 870.395Z" fill="#F50200" fill-rule="evenodd"/><path d="M1716 914.5C1716 848.502 1769.73 795 1836 795 1902.27 795 1956 848.502 1956 914.5 1956 980.498 1902.27 1034 1836 1034 1769.73 1034 1716 980.498 1716 914.5Z" fill="#12CA9E" fill-rule="evenodd"/><path d="M1874.91 802 1879.86 803.459C1924.45 820.923 1956 864.096 1956 914.588 1956 980.537 1902.17 1034 1835.77 1034 1792.2 1034 1754.04 1010.98 1732.95 976.508L1731 972.603 1734.6 973.913C1745.9 977.402 1757.91 979.282 1770.36 979.282 1836.76 979.282 1890.58 925.82 1890.58 859.87 1890.58 843.383 1887.22 827.676 1881.13 813.39Z" fill="#0272E2" fill-rule="evenodd"/><path d="M1765 451.5C1765 379.979 1822.76 322 1894 322 1965.24 322 2023 379.979 2023 451.5 2023 523.021 1965.24 581 1894 581 1822.76 581 1765 523.021 1765 451.5Z" fill="#12CA9E" fill-rule="evenodd"/><path d="M1935.78 330 1941.1 331.579C1989.06 350.473 2023 397.181 2023 451.809 2023 523.159 1965.11 581 1893.69 581 1846.82 581 1805.78 556.09 1783.1 518.799L1781 514.575 1784.88 515.993C1797.02 519.767 1809.94 521.801 1823.33 521.801 1894.75 521.801 1952.64 463.96 1952.64 392.61 1952.64 374.772 1949.02 357.779 1942.48 342.323Z" fill="#0272E2" fill-rule="evenodd"/><path d="M2072 360C2072 289.86 2128.86 233 2199 233 2269.14 233 2326 289.86 2326 360 2326 430.14 2269.14 487 2199 487 2128.86 487 2072 430.14 2072 360Z" fill="#FF0656" fill-rule="evenodd"/><path d="M2240.59 241 2245.8 242.547C2292.76 261.065 2326 306.843 2326 360.382 2326 430.311 2269.3 487 2199.36 487 2153.46 487 2113.27 462.586 2091.06 426.038L2089 421.899 2092.8 423.288C2104.69 426.987 2117.34 428.98 2130.45 428.98 2200.4 428.98 2257.09 372.291 2257.09 302.362 2257.09 284.88 2253.55 268.226 2247.14 253.077Z" fill="#B7054A" fill-rule="evenodd"/><path d="M2509.97 457.836 2205 364" stroke="#000000" stroke-width="37.8125" stroke-miterlimit="8" fill="none" fill-rule="evenodd"/><path d="M2382 453C2382 381.203 2440.2 323 2512 323 2583.8 323 2642 381.203 2642 453 2642 524.797 2583.8 583 2512 583 2440.2 583 2382 524.797 2382 453Z" fill="#1EBCFD" fill-rule="evenodd"/><path d="M2554.42 331 2559.77 332.585C2607.92 351.554 2642 398.449 2642 453.294 2642 524.929 2583.87 583 2512.16 583 2465.09 583 2423.88 557.991 2401.11 520.552L2399 516.311 2402.89 517.734C2415.09 521.523 2428.06 523.565 2441.5 523.565 2513.22 523.565 2571.35 465.494 2571.35 393.859 2571.35 375.951 2567.72 358.89 2561.15 343.372Z" fill="#0171DF" fill-rule="evenodd"/><path d="M0 0 210.833 124.3" stroke="#000000" stroke-width="37.8125" stroke-miterlimit="8" fill="none" fill-rule="evenodd" transform="matrix(-1 0 0 1 2404.83 950)"/><path d="M2326 939.5C2326 889.518 2366.52 849 2416.5 849 2466.48 849 2507 889.518 2507 939.5 2507 989.482 2466.48 1030 2416.5 1030 2366.52 1030 2326 989.482 2326 939.5Z" fill="#12CA9E" fill-rule="evenodd"/><path d="M2445.73 854 2449.47 855.107C2483.16 868.355 2507 901.107 2507 939.412 2507 989.442 2466.33 1030 2416.16 1030 2383.24 1030 2354.41 1012.53 2338.48 986.385L2337 983.423 2339.72 984.417C2348.26 987.064 2357.33 988.49 2366.74 988.49 2416.9 988.49 2457.57 947.932 2457.57 897.901 2457.57 885.394 2455.03 873.478 2450.44 862.641Z" fill="#0272E2" fill-rule="evenodd"/><path d="M0 0 194.302 169.312" stroke="#000000" stroke-width="34.375" stroke-miterlimit="8" fill="none" fill-rule="evenodd" transform="matrix(-1 0 0 1 2797.3 582)"/><path d="M2484 753C2484 707.713 2521.83 671 2568.5 671 2615.17 671 2653 707.713 2653 753 2653 798.287 2615.17 835 2568.5 835 2521.83 835 2484 798.287 2484 753Z" fill="#103A6C" fill-rule="evenodd"/><path d="M2596.06 676 2599.53 677C2630.84 688.969 2653 718.557 2653 753.162 2653 798.36 2615.2 835 2568.57 835 2537.98 835 2511.18 819.22 2496.37 795.598L2495 792.922 2497.53 793.82C2505.46 796.211 2513.89 797.499 2522.64 797.499 2569.26 797.499 2607.06 760.859 2607.06 715.661 2607.06 704.362 2604.7 693.597 2600.43 683.806Z" fill="#000924" fill-rule="evenodd"/><path d="M2788 795C2788 735.353 2836.35 687 2896 687 2955.65 687 3004 735.353 3004 795 3004 854.647 2955.65 903 2896 903 2836.35 903 2788 854.647 2788 795Z" fill="#12CA9E" fill-rule="evenodd"/><path d="M2931.2 693 2935.64 694.321C2975.67 710.129 3004 749.208 3004 794.912 3004 854.607 2955.68 903 2896.06 903 2856.94 903 2822.68 882.159 2803.75 850.96L2802 847.426 2805.24 848.611C2815.38 851.77 2826.16 853.471 2837.33 853.471 2896.94 853.471 2945.27 805.078 2945.27 745.383 2945.27 730.459 2942.25 716.241 2936.79 703.31Z" fill="#0272E2" fill-rule="evenodd"/><path d="M0 0 328.42 124.527" stroke="#000000" stroke-width="37.8125" stroke-miterlimit="8" fill="none" fill-rule="evenodd" transform="matrix(-1 0 0 1 2894.42 800)"/><path d="M2451 914C2451 846.621 2505.85 792 2573.5 792 2641.16 792 2696 846.621 2696 914 2696 981.379 2641.16 1036 2573.5 1036 2505.85 1036 2451 981.379 2451 914Z" fill="#FF0656" fill-rule="evenodd"/><path d="M2613.47 799 2618.5 800.491C2663.89 818.331 2696 862.434 2696 914.015 2696 981.385 2641.22 1036 2573.64 1036 2529.29 1036 2490.45 1012.48 2468.99 977.269L2467 973.28 2470.67 974.619C2482.16 978.183 2494.38 980.103 2507.06 980.103 2574.64 980.103 2629.42 925.488 2629.42 858.117 2629.42 841.275 2626 825.229 2619.8 810.635Z" fill="#B7054A" fill-rule="evenodd"/><path d="M2545.5 922.5C2545.5 905.931 2558.48 892.5 2574.5 892.5 2590.52 892.5 2603.5 905.931 2603.5 922.5 2603.5 939.069 2590.52 952.5 2574.5 952.5 2558.48 952.5 2545.5 939.069 2545.5 922.5Z" stroke="#000000" stroke-width="6.875" stroke-miterlimit="8" fill-rule="evenodd"/><path d="M2160.5 798C2160.5 773.423 2180.42 753.5 2205 753.5 2229.58 753.5 2249.5 773.423 2249.5 798 2249.5 822.577 2229.58 842.5 2205 842.5 2180.42 842.5 2160.5 822.577 2160.5 798Z" stroke="#000000" stroke-width="6.875" stroke-miterlimit="8" fill-rule="evenodd"/><path d="M2150.5 618.5C2150.5 587.572 2175.57 562.5 2206.5 562.5 2237.43 562.5 2262.5 587.572 2262.5 618.5 2262.5 649.428 2237.43 674.5 2206.5 674.5 2175.57 674.5 2150.5 649.428 2150.5 618.5Z" stroke="#000000" stroke-width="6.875" stroke-miterlimit="8" fill-rule="evenodd"/><path d="M1848.5 456C1848.5 428.662 1870.89 406.5 1898.5 406.5 1926.11 406.5 1948.5 428.662 1948.5 456 1948.5 483.338 1926.11 505.5 1898.5 505.5 1870.89 505.5 1848.5 483.338 1848.5 456Z" stroke="#000000" stroke-width="6.875" stroke-miterlimit="8" fill-rule="evenodd"/><path d="M2159.5 369C2159.5 343.319 2180.54 322.5 2206.5 322.5 2232.46 322.5 2253.5 343.319 2253.5 369 2253.5 394.681 2232.46 415.5 2206.5 415.5 2180.54 415.5 2159.5 394.681 2159.5 369Z" stroke="#000000" stroke-width="6.875" stroke-miterlimit="8" fill-rule="evenodd"/><path d="M2463.5 462C2463.5 436.319 2484.32 415.5 2510 415.5 2535.68 415.5 2556.5 436.319 2556.5 462 2556.5 487.681 2535.68 508.5 2510 508.5 2484.32 508.5 2463.5 487.681 2463.5 462Z" stroke="#000000" stroke-width="6.875" stroke-miterlimit="8" fill-rule="evenodd"/><path d="M2848.5 800C2848.5 774.319 2869.32 753.5 2895 753.5 2920.68 753.5 2941.5 774.319 2941.5 800 2941.5 825.681 2920.68 846.5 2895 846.5 2869.32 846.5 2848.5 825.681 2848.5 800Z" stroke="#000000" stroke-width="6.875" stroke-miterlimit="8" fill-rule="evenodd"/><path d="M1464.5 798C1464.5 772.319 1485.32 751.5 1511 751.5 1536.68 751.5 1557.5 772.319 1557.5 798 1557.5 823.681 1536.68 844.5 1511 844.5 1485.32 844.5 1464.5 823.681 1464.5 798Z" stroke="#000000" stroke-width="6.875" stroke-miterlimit="8" fill-rule="evenodd"/><path d="M0 0 96.3489 303.27" stroke="#000000" stroke-width="29.7917" stroke-miterlimit="8" fill="none" fill-rule="evenodd" transform="matrix(-1 0 0 1 2510.35 461)"/><path d="M0 0 2.36457 255.329" stroke="#000000" stroke-width="37.8125" stroke-miterlimit="8" fill="none" fill-rule="evenodd" transform="matrix(-1 0 0 1 2202.36 368)"/><path d="M1897 451 1997.1 780.003" stroke="#000000" stroke-width="37.8125" stroke-miterlimit="8" fill="none" fill-rule="evenodd"/><path d="M0 0 212.643 163.301" stroke="#000000" stroke-width="37.8125" stroke-miterlimit="8" fill="none" fill-rule="evenodd" transform="matrix(-1 0 0 1 2202.64 617)"/><path d="M2202.5 624.5 2202.5 799.603" stroke="#000000" stroke-width="33.2292" stroke-miterlimit="8" fill="none" fill-rule="evenodd"/><path d="M2205 609 2410.84 764.507" stroke="#000000" stroke-width="32.0833" stroke-miterlimit="8" fill="none" fill-rule="evenodd"/><path d="M0 0 208.776 46.523" stroke="#000000" stroke-width="37.8125" stroke-miterlimit="8" fill="none" fill-rule="evenodd" transform="matrix(-1 0 0 1 2413.78 751)"/><path d="M1997 751 2207.27 799.815" stroke="#000000" stroke-width="37.8125" stroke-miterlimit="8" fill="none" fill-rule="evenodd"/><path d="M1804.5 922.5C1804.5 903.722 1819.72 888.5 1838.5 888.5 1857.28 888.5 1872.5 903.722 1872.5 922.5 1872.5 941.278 1857.28 956.5 1838.5 956.5 1819.72 956.5 1804.5 941.278 1804.5 922.5Z" stroke="#000000" stroke-width="6.875" stroke-miterlimit="8" fill-rule="evenodd"/><path d="M2739 586C2739 552.31 2766.09 525 2799.5 525 2832.91 525 2860 552.31 2860 586 2860 619.689 2832.91 647 2799.5 647 2766.09 647 2739 619.689 2739 586Z" fill="#FCB300" fill-rule="evenodd"/><path d="M2819.27 529 2821.76 529.742C2844.15 538.625 2860 560.583 2860 586.265 2860 619.808 2832.97 647 2799.62 647 2777.74 647 2758.57 635.289 2747.98 617.758L2747 615.772 2748.81 616.439C2754.48 618.213 2760.51 619.169 2766.77 619.169 2800.11 619.169 2827.15 591.977 2827.15 558.434 2827.15 550.048 2825.46 542.059 2822.4 534.793Z" fill="#F50200" fill-rule="evenodd"/><path d="M1543 587C1543 554.415 1569.42 528 1602 528 1634.58 528 1661 554.415 1661 587 1661 619.585 1634.58 646 1602 646 1569.42 646 1543 619.585 1543 587Z" fill="#0173DE" fill-rule="evenodd"/><path d="M1621 531 1623.44 531.724C1645.43 540.38 1661 561.78 1661 586.809 1661 619.499 1634.45 646 1601.69 646 1580.19 646 1561.37 634.587 1550.96 617.502L1550 615.566 1551.78 616.216C1557.35 617.945 1563.27 618.877 1569.42 618.877 1602.17 618.877 1628.73 592.376 1628.73 559.686 1628.73 551.513 1627.07 543.727 1624.07 536.646Z" fill="#0171DF" fill-rule="evenodd"/><path d="M2305 758C2305 696.144 2356.71 646 2420.5 646 2484.29 646 2536 696.144 2536 758 2536 819.856 2484.29 870 2420.5 870 2356.71 870 2305 819.856 2305 758Z" fill="#103A6C" fill-rule="evenodd"/><path d="M2458.15 653 2462.9 654.365C2505.71 670.7 2536 711.081 2536 758.309 2536 819.994 2484.33 870 2420.58 870 2378.75 870 2342.12 848.464 2321.87 816.225L2320 812.573 2323.46 813.798C2334.3 817.062 2345.83 818.82 2357.78 818.82 2421.52 818.82 2473.2 768.814 2473.2 707.129 2473.2 691.708 2469.97 677.016 2464.13 663.654Z" fill="#000924" fill-rule="evenodd"/><path d="M1877 750.5C1877 688.92 1928.71 639 1992.5 639 2056.29 639 2108 688.92 2108 750.5 2108 812.08 2056.29 862 1992.5 862 1928.71 862 1877 812.08 1877 750.5Z" fill="#103A6C" fill-rule="evenodd"/><path d="M2029.79 645 2034.56 646.365C2077.57 662.7 2108 703.081 2108 750.309 2108 811.994 2056.09 862 1992.05 862 1950.02 862 1913.22 840.465 1892.88 808.225L1891 804.573 1894.48 805.798C1905.37 809.062 1916.95 810.82 1928.96 810.82 1992.99 810.82 2044.91 760.814 2044.91 699.129 2044.91 683.707 2041.66 669.016 2035.8 655.653Z" fill="#000924" fill-rule="evenodd"/><path d="M2179.5 1060C2179.5 1043.16 2193.38 1029.5 2210.5 1029.5 2227.62 1029.5 2241.5 1043.16 2241.5 1060 2241.5 1076.84 2227.62 1090.5 2210.5 1090.5 2193.38 1090.5 2179.5 1076.84 2179.5 1060Z" stroke="#000000" stroke-width="6.875" stroke-miterlimit="8" fill-rule="evenodd"/><path d="M1566.54 999 1567.15 999.062 1568.7 1014.43C1575.3 1046.66 1600.69 1072.04 1632.93 1078.63L1648.95 1080.24 1649 1080.78 1632.59 1082.43C1594.98 1090.13 1566.69 1123.39 1566.69 1163.26L1566.76 1163.98 1566.54 1164 1565.06 1163.85 1563.46 1147.91C1556.86 1115.69 1531.47 1090.31 1499.23 1083.71L1484.07 1082.19 1484 1081.5 1484.03 1081.2 1500.07 1079.59C1532.3 1072.99 1557.69 1047.61 1564.29 1015.39L1565.94 999.06Z" fill="#FCB300" fill-rule="evenodd"/><path d="M1589.58 1053 1591.43 1055.48C1602.59 1066.64 1616.94 1074.61 1632.99 1077.9L1648.95 1079.5 1649 1080.04 1632.66 1081.69C1595.2 1089.36 1567.02 1122.52 1567.02 1162.26L1567.09 1162.98 1566.87 1163 1565.4 1162.85 1563.8 1146.96C1560.51 1130.9 1552.55 1116.54 1541.39 1105.38L1532 1098.36 1532.16 1098.34C1553.56 1093.96 1571.92 1081.26 1583.74 1063.77Z" fill="#F50200" fill-rule="evenodd"/><path d="M2839.04 1016 2839.65 1016.06 2841.19 1031.43C2847.75 1063.66 2872.98 1089.04 2905.02 1095.63L2920.95 1097.24 2921 1097.78 2904.69 1099.43C2867.31 1107.13 2839.19 1140.39 2839.19 1180.26L2839.26 1180.98 2839.04 1181 2837.57 1180.85 2835.97 1164.91C2829.42 1132.69 2804.18 1107.31 2772.14 1100.71L2757.07 1099.19 2757 1098.5 2757.03 1098.2 2772.97 1096.59C2805.01 1089.99 2830.25 1064.61 2836.8 1032.39L2838.44 1016.06Z" fill="#12CA9E" fill-rule="evenodd"/><path d="M2878.33 1084 2882.22 1086.92C2889.24 1090.75 2896.87 1093.58 2904.93 1095.24L2920.95 1096.86 2921 1097.4 2904.59 1099.06C2866.99 1106.79 2838.7 1140.21 2838.7 1180.26L2838.77 1180.98 2838.54 1181 2837.07 1180.85 2835.46 1164.84C2833.81 1156.75 2830.99 1149.08 2827.18 1142.04L2818 1129.71 2825.3 1117.17C2834.45 1104.56 2847.41 1094.54 2862.64 1088.54Z" fill="#0272E2" fill-rule="evenodd"/><text font-family="Roboto,Roboto_MSFontService,sans-serif" font-weight="700" font-size="92" transform="matrix(1 0 0 1 1446.36 1994)">HETEROPHILIC &amp; HETEROGENEOUS</text><text font-family="Roboto,Roboto_MSFontService,sans-serif" font-weight="700" font-size="92" transform="matrix(1 0 0 1 1750.01 2104)">GRAPH BENCHMARK</text><text font-family="Harlow Solid Italic,Harlow Solid Italic_MSFontService,sans-serif" font-style="italic" font-weight="400" font-stretch="semi-expanded" font-size="573" transform="matrix(1 0 0 1 1324.01 1626)">H</text><text font-family="Harlow Solid Italic,Harlow Solid Italic_MSFontService,sans-serif" font-style="italic" font-weight="400" font-stretch="semi-expanded" font-size="382" transform="matrix(1 0 0 1 1908.38 1454)">2</text><text font-family="Harlow Solid Italic,Harlow Solid Italic_MSFontService,sans-serif" font-style="italic" font-weight="400" font-stretch="semi-expanded" font-size="573" transform="matrix(1 0 0 1 2081.97 1626)">GB</text></g></svg>